<svg xmlns="http://www.w3.org/2000/svg" viewBox="0 0 170 131"><defs><style>.cls-1,.cls-2,.cls-3,.cls-4,.cls-5{fill:none;}.cls-1,.cls-2,.cls-3,.cls-4,.cls-5,.cls-6,.cls-7{stroke:#47529e;stroke-miterlimit:10;}.cls-1,.cls-7{stroke-width:3px;}.cls-2,.cls-6{stroke-width:4px;}.cls-3{stroke-width:5px;}.cls-4{stroke-width:6px;}.cls-5{stroke-width:2px;}.cls-6,.cls-7{fill:#2e3192;}</style></defs><g id="Layer_8" data-name="Layer 8"><path class="cls-1" d="M46.37,24.77c3.53-2.35,6-2,6-2l71.06-.16s3.33.16,4.63,2.16c.55.84,1.21,2,1.81,3.11a12.21,12.21,0,0,1,1.46,5.94l-1,78.95a6.19,6.19,0,0,1-2,4,14.63,14.63,0,0,1-5,3H51.1s-4.6-1.44-5.6-3.27A23.75,23.75,0,0,1,44,111.67a18,18,0,0,1-.47-4.07l-.13-75.83S43.37,26.77,46.37,24.77Z"/><line class="cls-2" x1="87.35" y1="45.99" x2="118.02" y2="45.99"/><line class="cls-1" x1="87.35" y1="56.48" x2="91.32" y2="56.48"/><line class="cls-1" x1="96.5" y1="56.5" x2="112.03" y2="56.48"/><polyline class="cls-3" points="56.5 50.5 61.08 55.5 71.5 44.5"/><line class="cls-3" x1="87.35" y1="69.5" x2="108.49" y2="69.5"/><line class="cls-1" x1="112.98" y1="69.5" x2="118.7" y2="69.5"/><line class="cls-1" x1="87.35" y1="79.64" x2="103.85" y2="79.64"/><line class="cls-1" x1="109.3" y1="79.64" x2="114.34" y2="79.64"/><line class="cls-1" x1="86.5" y1="92.5" x2="91.32" y2="92.5"/><line class="cls-4" x1="97.32" y1="92.5" x2="108.49" y2="92.5"/><line class="cls-1" x1="114.34" y1="92.5" x2="119.25" y2="92.5"/><line class="cls-5" x1="87.35" y1="102.8" x2="109.3" y2="102.8"/><polyline class="cls-3" points="57.5 70.5 61.5 75.5 71.5 65"/><rect class="cls-6" x="57.5" y="92.99" width="9.98" height="9.81"/></g><g id="Layer_9" data-name="Layer 9"><path class="cls-7" d="M66.5,30.5h40.62s.91-6.42-2.86-9.71S93.5,17.5,93.5,17.5s-1-4-6.15-4.47c-4.86-.45-6.85,4.47-6.85,4.47s-8,1-11,3S66.5,30.5,66.5,30.5Z"/></g></svg>