<svg xmlns="http://www.w3.org/2000/svg" viewBox="0 0 150.15 111.8"><defs><style>.cls-1,.cls-2{fill:none;stroke:#47529e;stroke-miterlimit:10;}.cls-1{stroke-width:5px;}.cls-2{stroke-width:2px;}</style></defs><g id="Layer_2" data-name="Layer 2"><path class="cls-1" d="M110,36s-4-18,6-24,27,5,32,15,11,30,2,36-25,0-26-3" transform="translate(-6.99 -7.8)"/><path class="cls-1" d="M122.5,44.5c-3.61-7.21-7-21-2-25s17,5,20,11,7,21,3,25S124.5,48.5,122.5,44.5Z" transform="translate(-6.99 -7.8)"/><path class="cls-1" d="M125.5,27.5l2,4a14.76,14.76,0,0,0,1.4,6.43,24.84,24.84,0,0,0,4.6,6.57c3,3,5,3,5,3" transform="translate(-6.99 -7.8)"/><path class="cls-1" d="M42.5,78.5s-23,12-23,13-1,6,2,11,9.84,6.4,9.42,6.2S58.5,91.5,58.5,91.5" transform="translate(-6.99 -7.8)"/><path class="cls-1" d="M79.5,49.5S52,64.63,51.26,65.57,48.5,75.5,53.5,83.5s9.75,10.22,14.37,10.11S102.5,73.5,102.5,73.5" transform="translate(-6.99 -7.8)"/><path class="cls-1" d="M109.21,23.43,90.5,34.5s-6,16,1.5,26.52S109.5,76.5,113.5,75.5s18.43-11.14,18.43-11.14" transform="translate(-6.99 -7.8)"/><path class="cls-1" d="M25.47,87.68s-10.38-3.82-13.17,0-5,14.25,1.09,21S27.5,119.5,31.5,115.5s4.33-10.06,4.33-10.06" transform="translate(-6.99 -7.8)"/></g><g id="Layer_3" data-name="Layer 3"><path class="cls-2" d="M99.48,37.93s-1.76,10.42,1.63,15.5" transform="translate(-6.99 -7.8)"/><path class="cls-2" d="M63,65.57S61.3,74,65.15,78.5" transform="translate(-6.99 -7.8)"/></g></svg>